<?xml version="1.0" encoding="UTF-8"?>
<svg id="Capa_1" data-name="Capa 1" xmlns="http://www.w3.org/2000/svg" xmlns:xlink="http://www.w3.org/1999/xlink" viewBox="0 0 993.92 646.33">
  <defs>
    <style>
      .cls-1 {
        fill: url(#Degradado_sin_nombre_135-5);
      }

      .cls-2 {
        fill: url(#Degradado_sin_nombre_135-12);
      }

      .cls-3 {
        fill: url(#Degradado_sin_nombre_135-13);
      }

      .cls-4 {
        fill: url(#Degradado_sin_nombre_135-10);
      }

      .cls-5 {
        fill: none;
        stroke: #fff;
        stroke-linecap: round;
        stroke-linejoin: bevel;
        stroke-width: 2px;
      }

      .cls-6 {
        fill: url(#Degradado_sin_nombre_135-11);
      }

      .cls-7 {
        fill: #fff;
      }

      .cls-8 {
        fill: url(#Degradado_sin_nombre_135-8);
      }

      .cls-9 {
        fill: url(#Degradado_sin_nombre_135-2);
      }

      .cls-10 {
        fill: url(#Degradado_sin_nombre_135-3);
      }

      .cls-11 {
        fill: url(#Degradado_sin_nombre_135-7);
      }

      .cls-12 {
        fill: #55b9a5;
      }

      .cls-13 {
        fill: url(#Degradado_sin_nombre_135-4);
      }

      .cls-14 {
        fill: url(#Degradado_sin_nombre_135);
      }

      .cls-15 {
        fill: url(#Degradado_sin_nombre_135-9);
      }

      .cls-16 {
        fill: url(#Degradado_sin_nombre_135-6);
      }
    </style>
    <linearGradient id="Degradado_sin_nombre_135" data-name="Degradado sin nombre 135" x1="369.05" y1="161.66" x2="369.05" y2="101.69" gradientUnits="userSpaceOnUse">
      <stop offset="0" stop-color="#81c5a8"/>
      <stop offset=".86" stop-color="#58bbaf"/>
    </linearGradient>
    <linearGradient id="Degradado_sin_nombre_135-2" data-name="Degradado sin nombre 135" x1="475.2" y1="162.83" x2="475.2" y2="100.52" xlink:href="#Degradado_sin_nombre_135"/>
    <linearGradient id="Degradado_sin_nombre_135-3" data-name="Degradado sin nombre 135" x1="589.1" y1="162.81" x2="589.1" xlink:href="#Degradado_sin_nombre_135"/>
    <linearGradient id="Degradado_sin_nombre_135-4" data-name="Degradado sin nombre 135" x1="700.63" x2="700.63" xlink:href="#Degradado_sin_nombre_135"/>
    <linearGradient id="Degradado_sin_nombre_135-5" data-name="Degradado sin nombre 135" x1="809.03" y1="162.84" x2="809.03" y2="100.52" xlink:href="#Degradado_sin_nombre_135"/>
    <linearGradient id="Degradado_sin_nombre_135-6" data-name="Degradado sin nombre 135" x1="920.26" y1="161.66" x2="920.26" y2="101.69" xlink:href="#Degradado_sin_nombre_135"/>
    <linearGradient id="Degradado_sin_nombre_135-7" data-name="Degradado sin nombre 135" x1="920.52" x2="920.52" y2="101.69" xlink:href="#Degradado_sin_nombre_135"/>
    <linearGradient id="Degradado_sin_nombre_135-8" data-name="Degradado sin nombre 135" x1="920.26" y1="161.66" x2="920.26" y2="101.69" xlink:href="#Degradado_sin_nombre_135"/>
    <linearGradient id="Degradado_sin_nombre_135-9" data-name="Degradado sin nombre 135" x1="131.08" y1="163" x2="131.08" y2="1" xlink:href="#Degradado_sin_nombre_135"/>
    <linearGradient id="Degradado_sin_nombre_135-10" data-name="Degradado sin nombre 135" x1="232.26" y1="163" x2="232.26" y2="62.33" xlink:href="#Degradado_sin_nombre_135"/>
    <linearGradient id="Degradado_sin_nombre_135-11" data-name="Degradado sin nombre 135" x1="201.35" y1="163" x2="201.35" y2="82.26" xlink:href="#Degradado_sin_nombre_135"/>
    <linearGradient id="Degradado_sin_nombre_135-12" data-name="Degradado sin nombre 135" x1="170.68" y1="163" x2="170.68" y2="101.68" xlink:href="#Degradado_sin_nombre_135"/>
    <linearGradient id="Degradado_sin_nombre_135-13" data-name="Degradado sin nombre 135" x1="139.77" y1="163" x2="139.77" y2="121.1" xlink:href="#Degradado_sin_nombre_135"/>
  </defs>
  <polygon class="cls-12" points="610.1 88.41 596.3 112.31 623.9 112.31 610.1 88.41"/>
  <g>
    <path class="cls-14" d="M346.24,101.69h45.62v9.24h-34.36v16.65h32.08v9.3h-32.08v24.79h-11.25v-59.98Z"/>
    <path class="cls-9" d="M506.25,131.46c0,16.73-10.84,31.37-31.36,31.37-19.42,0-30.74-13.83-30.74-31.28s11.85-31.02,31.29-31.02,30.81,14.03,30.81,30.94ZM456.04,131.33c0,12.16,6.54,22.37,19.38,22.37s18.93-10.63,18.93-22.07-6.2-21.96-19.37-21.96-18.94,10.09-18.94,21.67Z"/>
    <path class="cls-10" d="M573.9,101.69v34.5c0,13.84,7.64,17.56,15.55,17.56,9.06,0,14.87-4.21,14.87-17.56v-34.5h11.32v34.51c0,19.13-10.51,26.62-26.49,26.62s-26.57-7.35-26.57-26.15v-34.97h11.33Z"/>
    <path class="cls-13" d="M686.86,137.02v24.64h-11.18v-59.98h29.19c12.99,0,20.72,6.43,20.72,16.6,0,7.61-4.17,12.37-10.37,14.22,3.38,1.08,8.92,3.93,8.92,14.55v2.81c0,4.28-.06,9.13.76,11.8h-11.41c-.98-2.62-1-6.8-1-12.59v-1.75c0-7.44-2.6-10.3-12.36-10.3h-13.25ZM686.86,128.16h15.3c8.17,0,11.86-2.95,11.86-8.96,0-5.62-3.81-8.64-11.54-8.64h-15.62v17.61Z"/>
    <path class="cls-1" d="M838.36,161.66h-8.38c-.35-1.42-.71-4.74-.83-7.35-3.65,5.17-9.23,8.52-20.24,8.52-18.71,0-29.44-12.98-29.44-30.79s11.34-31.53,31.49-31.53c17.59,0,25.84,9.38,27.65,18.61h-11.44c-1.7-4.56-5.93-9.73-16.28-9.73-13.48,0-19.53,9.91-19.53,22.09s6.24,22.41,19.49,22.41c11.56,0,16.55-6.46,16.55-15.44v-1.15h-16.45v-9.1h27.41v33.45Z"/>
    <path class="cls-16" d="M897.28,111.27l46.09-.3v-9.28h-46.21v9.17c.04.14.08.27.12.41Z"/>
    <polygon class="cls-11" points="897.16 152.47 897.16 161.66 943.8 161.66 943.89 152.39 897.16 152.47"/>
    <polygon class="cls-8" points="943.37 125.71 897.16 125.4 897.16 134.62 943.37 134.99 943.37 125.71"/>
  </g>
  <g>
    <path class="cls-7" d="M384.16,48.7c-2.5,10.66-9.01,20.09-23.74,20.09-16.93,0-25.54-14.75-25.54-31.86s9.52-32.04,26.06-32.04c14.6,0,21.7,10.04,23.35,20.2h-9.83c-1.5-4.81-4.72-10.58-13.64-10.58-10.08,0-15.74,9.47-15.74,21.97s5.41,22.74,15.81,22.74c7.97,0,11.3-4.09,13.54-10.52h9.73Z"/>
    <path class="cls-7" d="M453.74,41.6l-7.85,25.89h-9.98l20.3-61.3h12.18l21.24,61.3h-10.47l-8.3-25.89h-17.11ZM470.85,41.6c-5.19-15.33-7.67-22.87-8.82-27.32h-.07c-1.06,4.33-3.99,14.18-8.22,27.32h17.11Z"/>
    <path class="cls-7" d="M545.07,6.19h24.27c11.72,0,18.38,7.5,18.38,18.72,0,12.32-6.89,19.47-18.38,19.47h-14.57v23.11h-9.71V6.19ZM554.77,34.72h13.62c5.78,0,9.64-2.3,9.64-9.62,0-5.85-3.01-9.31-9.64-9.31h-13.62v18.93Z"/>
    <path class="cls-7" d="M654.82,6.19v61.3h-9.66V6.19h9.66Z"/>
    <path class="cls-7" d="M728.93,16.03h-17.86V6.19h45.36v9.84h-17.82v51.46h-9.69V16.03Z"/>
    <path class="cls-7" d="M818,41.6l-7.85,25.89h-9.98l20.3-61.3h12.18l21.24,61.3h-10.47l-8.3-25.89h-17.11ZM835.11,41.6c-5.19-15.33-7.67-22.87-8.83-27.32h-.07c-1.06,4.33-3.99,14.18-8.22,27.32h17.11Z"/>
    <path class="cls-7" d="M909.32,6.19h9.64v51.4h28.33l-1.33,9.9h-36.64V6.19Z"/>
  </g>
  <g>
    <path class="cls-15" d="M262.16,1v20.19c-7.27,3.5-15.25,5.64-22.67,9.02-7.42,3.38-16.03,8.21-22.06,13.71-9.33,8.52-11.7,22.64-18.62,32.99l-79.63,50.93-.37,34.13c-.11.24-.93,1.03-1.01,1.03h-45.23v-30.92c14.14-5.36,27.78-14.93,36.4-27.48,10.98-15.99,13.47-37.29-7.43-45.94-9.32-3.86-19.01-3.03-28.7-4C44.93,51.86,12.77,40.07,0,13.27l86.87-.52c.94-3.96-.11-7.75,0-11.75h175.29Z"/>
    <polygon class="cls-4" points="243.25 62.33 243.25 163 221.28 163 221.28 75.61 222.97 75.03 243.25 62.33"/>
    <path class="cls-6" d="M212.08,82.26v80.74h-21.46v-67.71c7.19-4.24,13.94-9.47,21.46-13.03Z"/>
    <polygon class="cls-2" points="181.42 101.68 181.42 163 159.95 163 159.95 114.45 181.42 101.68"/>
    <polygon class="cls-3" points="128.78 134.64 150.75 121.1 150.75 163 128.78 163 128.78 134.64"/>
  </g>
  <line class="cls-5" x1="293.3" y1="1" x2="293.3" y2="163"/>
</svg>