<?xml version="1.0" encoding="UTF-8"?>
<svg id="Capa_1" data-name="Capa 1" xmlns="http://www.w3.org/2000/svg" xmlns:xlink="http://www.w3.org/1999/xlink" viewBox="0 0 1147.86 355.42">
  <defs>
    <style>
      .cls-1 {
        fill: url(#Degradado_sin_nombre_135-5);
      }

      .cls-2 {
        fill: url(#Degradado_sin_nombre_135-12);
      }

      .cls-3 {
        fill: url(#Degradado_sin_nombre_135-13);
      }

      .cls-4 {
        fill: url(#Degradado_sin_nombre_135-10);
      }

      .cls-5 {
        fill: url(#Degradado_sin_nombre_135-11);
      }

      .cls-6 {
        fill: #fff;
      }

      .cls-7 {
        fill: #59baa2;
      }

      .cls-8 {
        fill: none;
      }

      .cls-9 {
        fill: url(#Degradado_sin_nombre_135-8);
      }

      .cls-10 {
        fill: url(#Degradado_sin_nombre_135-2);
      }

      .cls-11 {
        fill: url(#Degradado_sin_nombre_135-3);
      }

      .cls-12 {
        fill: url(#Degradado_sin_nombre_135-7);
      }

      .cls-13 {
        fill: #55b9a5;
      }

      .cls-14 {
        fill: url(#Degradado_sin_nombre_135-4);
      }

      .cls-15 {
        fill: url(#Degradado_sin_nombre_135);
      }

      .cls-16 {
        fill: url(#Degradado_sin_nombre_135-9);
      }

      .cls-17 {
        fill: #0db1aa;
      }

      .cls-18 {
        fill: url(#Degradado_sin_nombre_135-6);
      }
    </style>
    <linearGradient id="Degradado_sin_nombre_135" data-name="Degradado sin nombre 135" x1="569.61" y1="245.11" x2="569.61" y2="185.13" gradientUnits="userSpaceOnUse">
      <stop offset="0" stop-color="#81c5a8"/>
      <stop offset=".86" stop-color="#58bbaf"/>
    </linearGradient>
    <linearGradient id="Degradado_sin_nombre_135-2" data-name="Degradado sin nombre 135" x1="675.76" y1="246.27" x2="675.76" y2="183.97" xlink:href="#Degradado_sin_nombre_135"/>
    <linearGradient id="Degradado_sin_nombre_135-3" data-name="Degradado sin nombre 135" x1="789.66" y1="246.26" x2="789.66" xlink:href="#Degradado_sin_nombre_135"/>
    <linearGradient id="Degradado_sin_nombre_135-4" data-name="Degradado sin nombre 135" x1="901.19" x2="901.19" xlink:href="#Degradado_sin_nombre_135"/>
    <linearGradient id="Degradado_sin_nombre_135-5" data-name="Degradado sin nombre 135" x1="1009.59" y1="246.29" x2="1009.59" y2="183.97" xlink:href="#Degradado_sin_nombre_135"/>
    <linearGradient id="Degradado_sin_nombre_135-6" data-name="Degradado sin nombre 135" x1="1120.83" y1="245.11" x2="1120.83" y2="185.13" xlink:href="#Degradado_sin_nombre_135"/>
    <linearGradient id="Degradado_sin_nombre_135-7" data-name="Degradado sin nombre 135" x1="1121.09" x2="1121.09" y2="185.13" xlink:href="#Degradado_sin_nombre_135"/>
    <linearGradient id="Degradado_sin_nombre_135-8" data-name="Degradado sin nombre 135" x1="1120.83" y1="245.11" x2="1120.83" y2="185.13" xlink:href="#Degradado_sin_nombre_135"/>
    <linearGradient id="Degradado_sin_nombre_135-9" data-name="Degradado sin nombre 135" x1="264.72" y1="300.02" x2="264.72" y2="40.29" xlink:href="#Degradado_sin_nombre_135"/>
    <linearGradient id="Degradado_sin_nombre_135-10" data-name="Degradado sin nombre 135" x1="426.95" y1="300.02" x2="426.95" y2="138.61" xlink:href="#Degradado_sin_nombre_135"/>
    <linearGradient id="Degradado_sin_nombre_135-11" data-name="Degradado sin nombre 135" x1="377.38" y1="300.02" x2="377.38" y2="170.57" xlink:href="#Degradado_sin_nombre_135"/>
    <linearGradient id="Degradado_sin_nombre_135-12" data-name="Degradado sin nombre 135" x1="328.22" y1="300.02" x2="328.22" y2="201.7" xlink:href="#Degradado_sin_nombre_135"/>
    <linearGradient id="Degradado_sin_nombre_135-13" data-name="Degradado sin nombre 135" x1="278.65" y1="300.02" x2="278.65" y2="232.84" xlink:href="#Degradado_sin_nombre_135"/>
  </defs>
  <polygon class="cls-13" points="810.66 171.85 796.86 195.76 824.46 195.76 810.66 171.85"/>
  <g>
    <path class="cls-6" d="M587.23,296.23l-5.83-19.01h2.13c1.46,4.89,4.48,14.69,4.88,16.92h.03c.46-2.33,3.69-12.18,5.19-16.92h2.09c1.35,4.35,4.65,15.03,5.02,16.87h.03c.62-2.72,3.84-12.42,5.29-16.87h2.04l-6.29,19.01h-2.23c-1.35-4.38-4.57-14.69-4.99-16.72h-.03c-.47,2.28-3.6,11.9-5.16,16.72h-2.17Z"/>
    <path class="cls-6" d="M613.38,276.13v9.15c.54-1.14,1.81-2.89,4.94-2.89,2.74,0,4.92,1.67,4.92,5.57v8.27h-1.9v-7.93c0-2.47-.98-4.22-3.54-4.22-2.98,0-4.42,2.3-4.42,5.26v6.89h-1.89v-20.1h1.89Z"/>
    <path class="cls-6" d="M629.24,289.88c.12,2.98,1.96,5.08,4.8,5.08,2.3,0,3.47-1.07,4.18-2.43h1.9c-.66,1.85-2.41,4.06-6.22,4.06-4.48,0-6.58-3.49-6.58-7.04,0-4.1,2.55-7.17,6.57-7.17,4.85,0,6.46,3.73,6.46,6.8,0,.24,0,.45-.01.7h-11.1ZM638.35,288.4c-.1-1.98-1.15-4.41-4.49-4.41-2.85,0-4.29,1.88-4.56,4.41h9.05Z"/>
    <path class="cls-6" d="M644.43,286.41c0-1.46,0-2.63-.03-3.67h1.84c.03.38.08,1.65.08,3.09.87-2.11,2.82-3.43,5.3-3.44v1.9c-3.03.02-5.3,2-5.3,5.82v6.12h-1.89v-9.82Z"/>
    <path class="cls-6" d="M655.64,289.88c.12,2.98,1.96,5.08,4.8,5.08,2.3,0,3.47-1.07,4.18-2.43h1.9c-.66,1.85-2.41,4.06-6.22,4.06-4.48,0-6.58-3.49-6.58-7.04,0-4.1,2.55-7.17,6.57-7.17,4.85,0,6.46,3.73,6.46,6.8,0,.24,0,.45-.01.7h-11.1ZM664.75,288.4c-.1-1.98-1.15-4.41-4.49-4.41-2.85,0-4.29,1.88-4.56,4.41h9.05Z"/>
    <path class="cls-6" d="M679.85,296.23v-11.88h-2.52v-1.6h2.52v-1.98c0-2.81,1.1-4.87,4.13-4.87.61,0,1.17.06,1.5.17v1.68c-.39-.1-.97-.14-1.34-.14-1.83,0-2.4.91-2.4,3.32v1.82h3.16v1.6h-3.16v11.88h-1.9Z"/>
    <path class="cls-6" d="M688.21,276.13h1.89v2.87h-1.89v-2.87ZM688.21,282.75h1.89v13.48h-1.89v-13.48Z"/>
    <path class="cls-6" d="M695.27,286.15c0-1.15,0-2.37-.03-3.4h1.84c.05.47.08,1.8.08,2.66.57-1.38,1.94-3.02,4.85-3.02s5.01,1.78,5.01,5.53v8.32h-1.9v-7.97c0-2.39-.93-4.18-3.51-4.18-3.05,0-4.45,2.39-4.45,5.61v6.54h-1.9v-10.08Z"/>
    <path class="cls-6" d="M722.83,293.17c0,1.17.09,2.72.15,3.06h-1.81c-.11-.49-.17-1.46-.18-2.08-.64,1.34-2.06,2.44-4.96,2.44-3.66,0-5.03-2.25-5.03-4.24,0-3.3,2.93-4.36,6.79-4.36h3.18v-.94c0-1.52-.61-3.09-3.7-3.09-2.75,0-3.35,1.29-3.65,2.6h-1.89c.17-1.78,1.33-4.17,5.56-4.17,4.21,0,5.54,2.02,5.54,4.45v6.34ZM720.98,289.44c-.46,0-1.43,0-3.14,0-3.26,0-4.93.74-4.93,2.81,0,1.52,1.09,2.75,3.38,2.75,3.9,0,4.68-2.43,4.68-4.91v-.65Z"/>
    <path class="cls-6" d="M728.1,286.15c0-1.15,0-2.37-.03-3.4h1.84c.05.47.08,1.8.08,2.66.57-1.38,1.94-3.02,4.85-3.02s5.01,1.78,5.01,5.53v8.32h-1.9v-7.97c0-2.39-.93-4.18-3.51-4.18-3.05,0-4.45,2.39-4.45,5.61v6.54h-1.9v-10.08Z"/>
    <path class="cls-6" d="M756.76,292.15c-.68,2.39-2.63,4.45-6.14,4.45-4.35,0-6.68-3.05-6.68-7.04s2.46-7.17,6.76-7.17,5.75,2.65,6.05,4.53h-1.9c-.5-1.45-1.62-2.9-4.21-2.9-2.95,0-4.74,2.28-4.74,5.48s1.72,5.46,4.73,5.46c2.25,0,3.54-1.1,4.24-2.81h1.9Z"/>
    <path class="cls-6" d="M760.94,276.13h1.89v2.87h-1.89v-2.87ZM760.94,282.75h1.89v13.48h-1.89v-13.48Z"/>
    <path class="cls-6" d="M778.8,293.17c0,1.17.09,2.72.15,3.06h-1.81c-.11-.49-.17-1.46-.18-2.08-.64,1.34-2.06,2.44-4.96,2.44-3.66,0-5.03-2.25-5.03-4.24,0-3.3,2.93-4.36,6.79-4.36h3.18v-.94c0-1.52-.61-3.09-3.7-3.09-2.75,0-3.35,1.29-3.65,2.6h-1.89c.17-1.78,1.33-4.17,5.56-4.17,4.21,0,5.54,2.02,5.54,4.45v6.34ZM776.94,289.44c-.46,0-1.43,0-3.14,0-3.26,0-4.93.74-4.93,2.81,0,1.52,1.09,2.75,3.38,2.75,3.9,0,4.68-2.43,4.68-4.91v-.65Z"/>
    <path class="cls-6" d="M783.98,296.23v-20.1h1.89v20.1h-1.89Z"/>
    <path class="cls-6" d="M801.38,289.43c1.39-1.27,5.47-4.83,7.58-6.69h2.47l-6.12,5.28,6.79,8.2h-2.42l-5.77-7.08-2.53,2.08v5h-1.89v-20.1h1.89v13.3Z"/>
    <path class="cls-6" d="M814.94,286.15c0-1.15,0-2.37-.03-3.4h1.84c.05.47.08,1.8.08,2.66.57-1.38,1.94-3.02,4.85-3.02s5.01,1.78,5.01,5.53v8.32h-1.9v-7.97c0-2.39-.93-4.18-3.51-4.18-3.05,0-4.45,2.39-4.45,5.61v6.54h-1.9v-10.08Z"/>
    <path class="cls-6" d="M844.31,289.48c0,3.66-2.24,7.11-6.83,7.11-4.22,0-6.7-3.27-6.7-7.09s2.57-7.12,6.82-7.12,6.7,3.3,6.7,7.09ZM832.74,289.51c0,2.82,1.75,5.44,4.82,5.44s4.79-2.42,4.79-5.43-1.75-5.48-4.86-5.48-4.75,2.48-4.75,5.47Z"/>
    <path class="cls-6" d="M848.91,282.75c2.5,7.86,3.22,10.23,3.54,11.64h.03c.32-1.25,1.09-3.58,3.89-11.64h1.86c2.83,8.23,3.55,10.37,3.79,11.42h.03c.34-1.32,1.21-4.1,3.64-11.42h1.92l-4.66,13.48h-1.94c-1.61-4.77-3.37-9.86-3.78-11.3h-.03c-.33,1.27-1.81,5.66-3.79,11.3h-2.06l-4.41-13.48h1.99Z"/>
    <path class="cls-6" d="M871.25,296.23v-20.1h1.89v20.1h-1.89Z"/>
    <path class="cls-6" d="M879.16,289.88c.12,2.98,1.96,5.08,4.8,5.08,2.3,0,3.47-1.07,4.18-2.43h1.9c-.66,1.85-2.41,4.06-6.22,4.06-4.48,0-6.58-3.49-6.58-7.04,0-4.1,2.55-7.17,6.57-7.17,4.85,0,6.46,3.73,6.46,6.8,0,.24,0,.45-.01.7h-11.1ZM888.28,288.4c-.1-1.98-1.15-4.41-4.49-4.41-2.85,0-4.29,1.88-4.56,4.41h9.05Z"/>
    <path class="cls-6" d="M906.56,276.13v16.17c0,1.3,0,2.62.03,3.93h-1.82c-.07-.55-.1-1.5-.1-2.19-.66,1.28-1.94,2.56-4.93,2.56-3.83,0-6.28-2.93-6.28-6.98,0-4.33,3-7.22,6.6-7.22,3.14,0,4.23,1.47,4.61,2.2v-8.45h1.9ZM895.41,289.57c0,2.85,1.65,5.36,4.59,5.36,3.51,0,4.75-2.31,4.75-5.56s-1-5.32-4.61-5.32c-3.11,0-4.74,2.55-4.74,5.51Z"/>
    <path class="cls-6" d="M923.74,294.6c0,4.93-1.61,7.79-6.75,7.79-4.71,0-5.88-2.73-6.15-4.44h1.94c.44,1.59,1.59,2.82,4.3,2.82,4.07,0,4.79-2.62,4.79-6.2v-.92c-.8,1.72-2.3,2.75-5.04,2.75-3.63,0-6.19-2.87-6.19-6.8,0-4.39,3.02-7.22,6.49-7.22,3.04,0,4.33,1.43,4.74,2.54,0-.71.04-1.81.08-2.17h1.81c-.02,1.11-.03,2.6-.03,3.9v7.95ZM912.62,289.52c0,3.05,1.93,5.19,4.63,5.19,3.08,0,4.69-1.96,4.69-5.36s-1.55-5.29-4.56-5.29c-3.29,0-4.76,2.71-4.76,5.46Z"/>
    <path class="cls-6" d="M929.76,289.88c.12,2.98,1.96,5.08,4.8,5.08,2.3,0,3.47-1.07,4.18-2.43h1.9c-.66,1.85-2.41,4.06-6.22,4.06-4.48,0-6.58-3.49-6.58-7.04,0-4.1,2.55-7.17,6.57-7.17,4.85,0,6.46,3.73,6.46,6.8,0,.24,0,.45-.01.7h-11.1ZM938.87,288.4c-.1-1.98-1.15-4.41-4.49-4.41-2.85,0-4.29,1.88-4.56,4.41h9.05Z"/>
    <path class="cls-6" d="M951.45,282.75h2.68v-4.37h1.9v4.37h3.51v1.6h-3.51v8.08c0,1.61.41,2.37,1.87,2.37.39,0,.96-.02,1.37-.13v1.48c-.55.21-1.19.23-1.86.23-2.42,0-3.27-1.12-3.27-3.66v-8.37h-2.68v-1.6Z"/>
    <path class="cls-6" d="M973.94,293.17c0,1.17.09,2.72.15,3.06h-1.81c-.11-.49-.17-1.46-.18-2.08-.64,1.34-2.06,2.44-4.96,2.44-3.66,0-5.03-2.25-5.03-4.24,0-3.3,2.93-4.36,6.79-4.36h3.18v-.94c0-1.52-.61-3.09-3.7-3.09-2.75,0-3.35,1.29-3.65,2.6h-1.89c.17-1.78,1.33-4.17,5.56-4.17,4.21,0,5.54,2.02,5.54,4.45v6.34ZM972.08,289.44c-.46,0-1.43,0-3.14,0-3.26,0-4.93.74-4.93,2.81,0,1.52,1.09,2.75,3.38,2.75,3.9,0,4.68-2.43,4.68-4.91v-.65Z"/>
    <path class="cls-6" d="M981.02,289.43c1.39-1.27,5.47-4.83,7.58-6.69h2.47l-6.12,5.28,6.79,8.2h-2.42l-5.77-7.08-2.53,2.08v5h-1.89v-20.1h1.89v13.3Z"/>
    <path class="cls-6" d="M995.19,289.88c.12,2.98,1.96,5.08,4.8,5.08,2.3,0,3.47-1.07,4.18-2.43h1.9c-.66,1.85-2.41,4.06-6.22,4.06-4.48,0-6.58-3.49-6.58-7.04,0-4.1,2.55-7.17,6.57-7.17,4.85,0,6.46,3.73,6.46,6.8,0,.24,0,.45-.01.7h-11.1ZM1004.31,288.4c-.1-1.98-1.15-4.41-4.49-4.41-2.85,0-4.29,1.88-4.56,4.41h9.05Z"/>
    <path class="cls-6" d="M1011.16,292.25c.5,1.76,1.94,2.78,4.41,2.78,2.69,0,3.7-1.02,3.7-2.41,0-1.3-.69-2.14-4.14-2.63-4.34-.63-5.27-2.08-5.27-3.8s1.35-3.8,5.28-3.8c4.26,0,5.52,2.32,5.66,3.93h-1.91c-.21-.91-.85-2.38-3.87-2.38-2.63,0-3.24,1.18-3.24,2.09,0,1.15.68,1.81,3.77,2.29,4.66.71,5.65,2.14,5.65,4.17,0,2.41-1.87,4.11-5.73,4.11s-5.8-1.69-6.24-4.35h1.93Z"/>
    <path class="cls-6" d="M1034.37,292.25c.5,1.76,1.94,2.78,4.41,2.78,2.69,0,3.7-1.02,3.7-2.41,0-1.3-.69-2.14-4.14-2.63-4.34-.63-5.27-2.08-5.27-3.8s1.35-3.8,5.28-3.8c4.26,0,5.52,2.32,5.66,3.93h-1.91c-.21-.91-.85-2.38-3.87-2.38-2.63,0-3.24,1.18-3.24,2.09,0,1.15.68,1.81,3.77,2.29,4.66.71,5.65,2.14,5.65,4.17,0,2.41-1.87,4.11-5.73,4.11s-5.8-1.69-6.24-4.35h1.93Z"/>
    <path class="cls-6" d="M1050.34,276.13v9.15c.54-1.14,1.81-2.89,4.94-2.89,2.74,0,4.92,1.67,4.92,5.57v8.27h-1.9v-7.93c0-2.47-.98-4.22-3.54-4.22-2.98,0-4.42,2.3-4.42,5.26v6.89h-1.89v-20.1h1.89Z"/>
    <path class="cls-6" d="M1076.02,293.17c0,1.17.09,2.72.15,3.06h-1.81c-.11-.49-.17-1.46-.18-2.08-.64,1.34-2.06,2.44-4.96,2.44-3.66,0-5.03-2.25-5.03-4.24,0-3.3,2.93-4.36,6.79-4.36h3.18v-.94c0-1.52-.61-3.09-3.7-3.09-2.75,0-3.35,1.29-3.65,2.6h-1.89c.17-1.78,1.33-4.17,5.56-4.17,4.21,0,5.54,2.02,5.54,4.45v6.34ZM1074.16,289.44c-.46,0-1.43,0-3.14,0-3.26,0-4.93.74-4.93,2.81,0,1.52,1.09,2.75,3.38,2.75,3.9,0,4.68-2.43,4.68-4.91v-.65Z"/>
    <path class="cls-6" d="M1083.18,294.1v7.95h-1.89v-15.94c0-1.12,0-2.26-.03-3.36h1.84c.05.44.08,1.33.08,2.46.8-1.51,2.39-2.82,5.15-2.82,3.54,0,6.03,2.91,6.03,6.85,0,4.45-2.85,7.36-6.44,7.36-2.8,0-4.02-1.25-4.75-2.49ZM1092.41,289.3c0-2.67-1.46-5.22-4.57-5.22-3.29,0-4.73,2.3-4.73,5.46s1.43,5.38,4.64,5.38,4.65-2.57,4.65-5.61Z"/>
    <path class="cls-6" d="M1099.36,289.88c.12,2.98,1.96,5.08,4.8,5.08,2.3,0,3.47-1.07,4.18-2.43h1.9c-.66,1.85-2.41,4.06-6.22,4.06-4.48,0-6.58-3.49-6.58-7.04,0-4.1,2.55-7.17,6.57-7.17,4.85,0,6.46,3.73,6.46,6.8,0,.24,0,.45-.01.7h-11.1ZM1108.48,288.4c-.1-1.98-1.15-4.41-4.49-4.41-2.85,0-4.29,1.88-4.56,4.41h9.05Z"/>
    <path class="cls-6" d="M1114.11,296.23v-3.91h2.02v3.91h-2.02Z"/>
  </g>
  <circle class="cls-17" cx="1140.25" cy="289.51" r="4.2"/>
  <circle class="cls-7" cx="549.41" cy="289.51" r="4.2"/>
  <g>
    <path class="cls-15" d="M546.8,185.13h45.62v9.24h-34.36v16.65h32.08v9.3h-32.08v24.79h-11.25v-59.98Z"/>
    <path class="cls-10" d="M706.81,214.9c0,16.73-10.84,31.37-31.36,31.37-19.42,0-30.74-13.83-30.74-31.28s11.85-31.02,31.29-31.02,30.81,14.03,30.81,30.94ZM656.61,214.77c0,12.16,6.54,22.37,19.38,22.37s18.93-10.63,18.93-22.07-6.2-21.96-19.37-21.96-18.94,10.09-18.94,21.67Z"/>
    <path class="cls-11" d="M774.46,185.13v34.5c0,13.84,7.64,17.56,15.55,17.56,9.06,0,14.87-4.21,14.87-17.56v-34.5h11.32v34.51c0,19.13-10.51,26.62-26.49,26.62s-26.57-7.35-26.57-26.15v-34.97h11.33Z"/>
    <path class="cls-14" d="M887.42,220.47v24.64h-11.18v-59.98h29.19c12.99,0,20.72,6.43,20.72,16.6,0,7.61-4.17,12.37-10.37,14.22,3.38,1.08,8.92,3.93,8.92,14.55v2.81c0,4.28-.06,9.13.76,11.8h-11.41c-.98-2.62-1-6.8-1-12.59v-1.75c0-7.44-2.6-10.3-12.36-10.3h-13.25ZM887.42,211.6h15.3c8.17,0,11.86-2.95,11.86-8.96,0-5.62-3.81-8.64-11.54-8.64h-15.62v17.61Z"/>
    <path class="cls-1" d="M1038.93,245.11h-8.38c-.35-1.42-.71-4.74-.83-7.35-3.65,5.17-9.23,8.52-20.24,8.52-18.71,0-29.44-12.98-29.44-30.79s11.34-31.53,31.49-31.53c17.59,0,25.84,9.38,27.65,18.61h-11.44c-1.7-4.56-5.93-9.73-16.28-9.73-13.48,0-19.53,9.91-19.53,22.09s6.24,22.41,19.49,22.41c11.56,0,16.55-6.46,16.55-15.44v-1.15h-16.45v-9.1h27.41v33.45Z"/>
    <path class="cls-18" d="M1097.84,194.71l46.09-.3v-9.28h-46.21v9.17c.04.14.08.27.12.41Z"/>
    <polygon class="cls-12" points="1097.72 235.92 1097.72 245.11 1144.36 245.11 1144.45 235.83 1097.72 235.92"/>
    <polygon class="cls-9" points="1143.93 209.16 1097.72 208.85 1097.72 218.07 1143.93 218.44 1143.93 209.16"/>
  </g>
  <g>
    <path class="cls-6" d="M584.72,132.14c-2.5,10.66-9.01,20.09-23.74,20.09-16.93,0-25.54-14.75-25.54-31.86s9.52-32.04,26.06-32.04c14.6,0,21.7,10.04,23.35,20.2h-9.83c-1.5-4.81-4.72-10.58-13.64-10.58-10.08,0-15.74,9.47-15.74,21.97s5.41,22.74,15.81,22.74c7.97,0,11.3-4.09,13.54-10.52h9.73Z"/>
    <path class="cls-6" d="M654.3,125.04l-7.85,25.89h-9.98l20.3-61.3h12.18l21.24,61.3h-10.47l-8.3-25.89h-17.11ZM671.41,125.04c-5.19-15.33-7.67-22.87-8.82-27.32h-.07c-1.06,4.33-3.99,14.18-8.22,27.32h17.11Z"/>
    <path class="cls-6" d="M745.63,89.63h24.27c11.72,0,18.38,7.5,18.38,18.72,0,12.32-6.89,19.47-18.38,19.47h-14.57v23.11h-9.71v-61.3ZM755.34,118.16h13.62c5.78,0,9.64-2.3,9.64-9.62,0-5.85-3.01-9.31-9.64-9.31h-13.62v18.93Z"/>
    <path class="cls-6" d="M855.39,89.63v61.3h-9.66v-61.3h9.66Z"/>
    <path class="cls-6" d="M929.5,99.47h-17.86v-9.84h45.36v9.84h-17.82v51.46h-9.69v-51.46Z"/>
    <path class="cls-6" d="M1018.56,125.04l-7.85,25.89h-9.98l20.3-61.3h12.18l21.24,61.3h-10.47l-8.3-25.89h-17.11ZM1035.67,125.04c-5.19-15.33-7.67-22.87-8.83-27.32h-.07c-1.06,4.33-3.99,14.18-8.22,27.32h17.11Z"/>
    <path class="cls-6" d="M1109.89,89.63h9.64v51.4h28.33l-1.33,9.9h-36.64v-61.3Z"/>
  </g>
  <g>
    <path class="cls-16" d="M474.88,40.29v32.36c-11.66,5.61-24.45,9.04-36.34,14.45-11.9,5.42-25.71,13.16-35.37,21.98-14.95,13.66-18.75,36.31-29.85,52.9l-127.68,81.66-.59,54.72c-.18.39-1.48,1.65-1.63,1.65h-72.51v-49.57c22.67-8.6,44.54-23.94,58.35-44.06,17.61-25.64,21.6-59.79-11.91-73.66-14.94-6.19-30.48-4.86-46.02-6.42-44.72-4.48-96.3-23.39-116.76-66.35l139.28-.83c1.5-6.34-.18-12.43,0-18.84h281.04Z"/>
    <polygon class="cls-4" points="444.57 138.61 444.57 300.02 409.34 300.02 409.34 159.92 412.05 158.98 444.57 138.61"/>
    <path class="cls-5" d="M394.59,170.57v129.45h-34.41v-108.56c11.53-6.8,22.34-15.19,34.41-20.89Z"/>
    <polygon class="cls-2" points="345.43 201.7 345.43 300.02 311.02 300.02 311.02 222.19 345.43 201.7"/>
    <polygon class="cls-3" points="261.04 254.55 296.26 232.84 296.27 300.02 261.04 300.02 261.04 254.55"/>
  </g>
  <rect class="cls-8" width="509.32" height="355.42"/>
</svg>